# Blender 5.0.0
# www.blender.org
mtllib human.mtl
o Object_9
v 0.000000 1.108312 -0.173806
v 0.089024 1.105926 -0.170900
v 0.089317 1.116474 0.181910
v 0.000000 1.115988 0.181688
v 0.445441 2.461178 0.173585
v 0.378013 2.081984 0.214765
v 0.453012 2.219298 0.106822
v 0.644172 2.274607 0.060344
v 0.000000 2.016963 -0.253991
v 0.000000 2.484494 -0.253990
v 0.431839 2.479036 -0.181903
v 0.390648 2.034444 -0.201859
v 0.431839 2.479036 -0.181903
v 0.000000 2.484494 -0.253990
v 0.000000 2.555645 -0.125308
v 0.182010 2.555645 -0.114496
v 0.378013 2.081984 0.214765
v 0.445441 2.461178 0.173585
v 0.000000 2.469321 0.249993
v 0.000000 2.016963 0.276374
v 0.425043 1.455604 0.187045
v 0.421238 1.564607 0.178515
v -0.000018 1.566267 0.274657
v 0.000021 1.457439 0.256177
v 0.421238 1.564607 0.178515
v 0.378013 2.081984 0.214765
v 0.000000 2.016963 0.276374
v -0.000018 1.566267 0.274657
v 0.000000 1.451858 -0.270691
v -0.000188 1.562854 -0.285240
v 0.421238 1.564607 -0.178514
v 0.424811 1.453685 -0.189147
v -0.000188 1.562854 -0.285240
v 0.000000 2.016963 -0.253991
v 0.390648 2.034444 -0.201859
v 0.421238 1.564607 -0.178514
v 0.424811 1.453685 -0.189147
v 0.421238 1.564607 -0.178514
v 0.421238 1.564607 0.178515
v 0.425043 1.455604 0.187045
v 0.421238 1.564607 -0.178514
v 0.390648 2.034444 -0.201859
v 0.378013 2.081984 0.214765
v 0.421238 1.564607 0.178515
v 0.089317 1.116474 0.181910
v 0.089024 1.105926 -0.170900
v 0.143048 1.018649 -0.089662
v 0.143962 1.037424 0.133003
v 0.000000 1.108312 -0.173806
v 0.000000 1.194541 -0.254341
v 0.374607 1.186822 -0.171402
v 0.089024 1.105926 -0.170900
v 0.089317 1.116474 0.181910
v 0.376159 1.218522 0.184061
v 0.000000 1.199241 0.225750
v 0.000000 1.115988 0.181688
v 0.346111 1.019292 -0.087990
v 0.347152 1.040491 0.134699
v 0.349767 0.735240 0.165345
v 0.348792 0.721054 -0.055946
v 0.376159 1.218522 0.184061
v 0.089317 1.116474 0.181910
v 0.143962 1.037424 0.133003
v 0.347152 1.040491 0.134699
v 0.374607 1.186822 -0.171402
v 0.376159 1.218522 0.184061
v 0.347152 1.040491 0.134699
v 0.346111 1.019292 -0.087990
v 0.089024 1.105926 -0.170900
v 0.374607 1.186822 -0.171402
v 0.346111 1.019292 -0.087990
v 0.143048 1.018649 -0.089662
v 0.146835 0.734282 0.166529
v 0.145857 0.720538 -0.054773
v 0.146098 0.649520 -0.050038
v 0.147229 0.641474 0.172491
v 0.347152 1.040491 0.134699
v 0.143962 1.037424 0.133003
v 0.146835 0.734282 0.166529
v 0.349767 0.735240 0.165345
v 0.143962 1.037424 0.133003
v 0.143048 1.018649 -0.089662
v 0.145857 0.720538 -0.054773
v 0.146835 0.734282 0.166529
v 0.143048 1.018649 -0.089662
v 0.346111 1.019292 -0.087990
v 0.348792 0.721054 -0.055946
v 0.145857 0.720538 -0.054773
v 0.146098 0.649520 -0.050038
v 0.349036 0.649020 -0.051212
v 0.348516 0.576067 -0.058858
v 0.145583 0.577095 -0.057588
v 0.145857 0.720538 -0.054773
v 0.348792 0.721054 -0.055946
v 0.349036 0.649020 -0.051212
v 0.146098 0.649520 -0.050038
v 0.348792 0.721054 -0.055946
v 0.349767 0.735240 0.165345
v 0.350168 0.641339 0.171350
v 0.349036 0.649020 -0.051212
v 0.349767 0.735240 0.165345
v 0.146835 0.734282 0.166529
v 0.147229 0.641474 0.172491
v 0.350168 0.641339 0.171350
v 0.353954 0.244574 -0.107787
v 0.354962 0.220627 0.130607
v 0.345821 0.144080 0.112298
v 0.345367 0.156652 -0.108575
v 0.349683 0.555028 0.163529
v 0.348516 0.576067 -0.058858
v 0.350168 0.641339 0.171350
v 0.147229 0.641474 0.172491
v 0.146752 0.556248 0.164845
v 0.349683 0.555028 0.163529
v 0.147229 0.641474 0.172491
v 0.146098 0.649520 -0.050038
v 0.145583 0.577095 -0.057588
v 0.146752 0.556248 0.164845
v 0.142894 0.144069 0.112606
v 0.142430 0.157768 -0.107543
v 0.142003 0.013656 -0.117507
v 0.142708 0.005540 0.111014
v 0.354962 0.220627 0.130607
v 0.135892 0.221877 0.131643
v 0.142894 0.144069 0.112606
v 0.345821 0.144080 0.112298
v 0.135892 0.221877 0.131643
v 0.134890 0.245902 -0.106599
v 0.142430 0.157768 -0.107543
v 0.142894 0.144069 0.112606
v 0.134890 0.245902 -0.106599
v 0.353954 0.244574 -0.107787
v 0.345367 0.156652 -0.108575
v 0.142430 0.157768 -0.107543
v 0.142003 0.013656 -0.117507
v 0.344946 0.012932 -0.118139
v 0.345656 0.005568 0.111057
v 0.142708 0.005540 0.111014
v 0.142430 0.157768 -0.107543
v 0.345367 0.156652 -0.108575
v 0.344946 0.012932 -0.118139
v 0.142003 0.013656 -0.117507
v 0.345367 0.156652 -0.108575
v 0.345821 0.144080 0.112298
v 0.345656 0.005568 0.111057
v 0.344946 0.012932 -0.118139
v 0.345656 0.005568 0.111057
v 0.345821 0.144080 0.112298
v 0.345666 0.121139 0.244867
v 0.345667 0.006312 0.244866
v 0.142721 0.006310 0.244866
v 0.345667 0.006312 0.244866
v 0.345667 0.006316 0.391156
v 0.142721 0.006314 0.391155
v 0.142894 0.144069 0.112606
v 0.142708 0.005540 0.111014
v 0.142721 0.006310 0.244866
v 0.142738 0.120789 0.244865
v 0.142708 0.005540 0.111014
v 0.345656 0.005568 0.111057
v 0.345821 0.144080 0.112298
v 0.142894 0.144069 0.112606
v 0.142738 0.120789 0.244865
v 0.345666 0.121139 0.244867
v 0.345666 0.070364 0.391156
v 0.142720 0.070362 0.391156
v 0.142721 0.006314 0.391155
v 0.345667 0.006316 0.391156
v 0.142721 0.006314 0.391155
v 0.142720 0.070362 0.391156
v 0.345666 0.121139 0.244867
v 0.142738 0.120789 0.244865
v 0.142720 0.070362 0.391156
v 0.345666 0.070364 0.391156
v 0.345667 0.006312 0.244866
v 0.345666 0.121139 0.244867
v 0.345666 0.070364 0.391156
v 0.345667 0.006316 0.391156
v 0.145583 0.577095 -0.057588
v 0.348516 0.576067 -0.058858
v 0.353954 0.244574 -0.107787
v 0.134890 0.245902 -0.106599
v 0.146752 0.556248 0.164845
v 0.145583 0.577095 -0.057588
v 0.134890 0.245902 -0.106599
v 0.135892 0.221877 0.131643
v 0.349683 0.555028 0.163529
v 0.146752 0.556248 0.164845
v 0.135892 0.221877 0.131643
v 0.354962 0.220627 0.130607
v 0.348516 0.576067 -0.058858
v 0.349683 0.555028 0.163529
v 0.354962 0.220627 0.130607
v 0.353954 0.244574 -0.107787
v 0.464277 1.994582 0.071439
v 0.435586 2.012711 -0.085504
v 0.465085 1.774153 -0.106357
v 0.497330 1.771705 0.028814
v 0.378013 2.081984 0.214765
v 0.390648 2.034444 -0.201859
v 0.521215 2.196978 -0.086579
v 0.453012 2.219298 0.106822
v 0.390648 2.034444 -0.201859
v 0.431839 2.479036 -0.181903
v 0.601934 2.297068 -0.116476
v 0.521215 2.196978 -0.086579
v 0.431839 2.479036 -0.181903
v 0.445441 2.461178 0.173585
v 0.644172 2.274607 0.060344
v 0.601934 2.297068 -0.116476
v 0.465085 1.774153 -0.106357
v 0.637751 1.788683 -0.145169
v 0.642903 1.711537 -0.139097
v 0.468464 1.719513 -0.109045
v 0.435586 2.012711 -0.085504
v 0.623695 2.031687 -0.133306
v 0.637751 1.788683 -0.145169
v 0.465085 1.774153 -0.106357
v 0.662951 2.018943 0.023761
v 0.464277 1.994582 0.071439
v 0.497330 1.771705 0.028814
v 0.670066 1.785155 -0.009541
v 0.623695 2.031687 -0.133306
v 0.662951 2.018943 0.023761
v 0.670066 1.785155 -0.009541
v 0.637751 1.788683 -0.145169
v 0.669545 1.732369 -0.004521
v 0.495193 1.739176 0.025999
v 0.489491 1.699079 0.037642
v 0.664595 1.682962 0.010705
v 0.670066 1.785155 -0.009541
v 0.497330 1.771705 0.028814
v 0.495193 1.739176 0.025999
v 0.669545 1.732369 -0.004521
v 0.637751 1.788683 -0.145169
v 0.670066 1.785155 -0.009541
v 0.669545 1.732369 -0.004521
v 0.642903 1.711537 -0.139097
v 0.497330 1.771705 0.028814
v 0.465085 1.774153 -0.106357
v 0.468464 1.719513 -0.109045
v 0.495193 1.739176 0.025999
v 0.489491 1.699079 0.037642
v 0.465045 1.669091 -0.096684
v 0.461803 1.339576 0.003168
v 0.480215 1.366081 0.109064
v 0.642903 1.711537 -0.139097
v 0.669545 1.732369 -0.004521
v 0.664595 1.682962 0.010705
v 0.640206 1.652259 -0.123343
v 0.495193 1.739176 0.025999
v 0.468464 1.719513 -0.109045
v 0.465045 1.669091 -0.096684
v 0.489491 1.699079 0.037642
v 0.468464 1.719513 -0.109045
v 0.642903 1.711537 -0.139097
v 0.640206 1.652259 -0.123343
v 0.465045 1.669091 -0.096684
v 0.618182 1.350863 0.088885
v 0.480215 1.366081 0.109064
v 0.464065 1.326614 0.134321
v 0.632007 1.308089 0.109759
v 0.465045 1.669091 -0.096684
v 0.640206 1.652259 -0.123343
v 0.599770 1.324358 -0.017011
v 0.461803 1.339576 0.003168
v 0.664595 1.682962 0.010705
v 0.489491 1.699079 0.037642
v 0.480215 1.366081 0.109064
v 0.618182 1.350863 0.088885
v 0.640206 1.652259 -0.123343
v 0.664595 1.682962 0.010705
v 0.618182 1.350863 0.088885
v 0.599770 1.324358 -0.017011
v 0.632007 1.308089 0.109759
v 0.464065 1.326614 0.134321
v 0.451614 1.153375 0.179846
v 0.619555 1.134850 0.155283
v 0.599770 1.324358 -0.017011
v 0.618182 1.350863 0.088885
v 0.632007 1.308089 0.109759
v 0.609595 1.275826 -0.019144
v 0.480215 1.366081 0.109064
v 0.461803 1.339576 0.003168
v 0.441654 1.294351 0.005419
v 0.464065 1.326614 0.134321
v 0.461803 1.339576 0.003168
v 0.599770 1.324358 -0.017011
v 0.609595 1.275826 -0.019144
v 0.441654 1.294351 0.005419
v 0.429202 1.121112 0.050943
v 0.597143 1.102587 0.026380
v 0.619555 1.134850 0.155283
v 0.451614 1.153375 0.179846
v 0.609595 1.275826 -0.019144
v 0.632007 1.308089 0.109759
v 0.619555 1.134850 0.155283
v 0.597143 1.102587 0.026380
v 0.464065 1.326614 0.134321
v 0.441654 1.294351 0.005419
v 0.429202 1.121112 0.050943
v 0.451614 1.153375 0.179846
v 0.441654 1.294351 0.005419
v 0.609595 1.275826 -0.019144
v 0.597143 1.102587 0.026380
v 0.429202 1.121112 0.050943
v 0.000000 2.552244 0.125164
v 0.182010 2.552244 0.114497
v 0.118761 2.674893 0.096000
v 0.000000 2.674893 0.096001
v 0.445441 2.461178 0.173585
v 0.431839 2.479036 -0.181903
v 0.182010 2.555645 -0.114496
v 0.182010 2.552244 0.114497
v 0.000000 2.469321 0.249993
v 0.445441 2.461178 0.173585
v 0.182010 2.552244 0.114497
v 0.000000 2.552244 0.125164
v 0.118761 2.674892 -0.096000
v 0.000000 2.674893 -0.096000
v 0.000000 2.721735 -0.178399
v 0.238084 2.721735 -0.178400
v 0.182010 2.552244 0.114497
v 0.182010 2.555645 -0.114496
v 0.118761 2.674892 -0.096000
v 0.118761 2.674893 0.096000
v 0.182010 2.555645 -0.114496
v 0.000000 2.555645 -0.125308
v 0.000000 2.674893 -0.096000
v 0.118761 2.674892 -0.096000
v 0.314104 3.237129 -0.217383
v 0.000000 3.237129 -0.241564
v 0.000000 3.454781 -0.178399
v 0.238084 3.454781 -0.178399
v 0.000000 2.674893 0.096001
v 0.118761 2.674893 0.096000
v 0.238084 2.721735 0.178400
v 0.000000 2.721735 0.178401
v 0.118761 2.674893 0.096000
v 0.118761 2.674892 -0.096000
v 0.238084 2.721735 -0.178400
v 0.238084 2.721735 0.178400
v 0.238084 3.454781 -0.178399
v 0.000000 3.454781 -0.178399
v 0.000000 3.454781 0.178400
v 0.238084 3.454781 0.178400
v 0.000000 3.237129 0.265892
v 0.314104 3.237129 0.217384
v 0.238084 3.454781 0.178400
v 0.000000 3.454781 0.178400
v 0.314104 3.237129 0.217384
v 0.314104 3.237129 -0.217383
v 0.238084 3.454781 -0.178399
v 0.238084 3.454781 0.178400
v 0.238084 2.721735 0.178400
v 0.238084 2.721735 -0.178400
v 0.314104 2.939386 -0.217383
v 0.314104 2.939386 0.217383
v 0.314104 2.939386 0.217383
v 0.314104 2.939386 -0.217383
v 0.314104 3.237129 -0.217383
v 0.314104 3.237129 0.217384
v 0.000000 2.721735 0.178401
v 0.238084 2.721735 0.178400
v 0.314104 2.939386 0.217383
v 0.000000 2.939386 0.265892
v 0.000000 2.939386 0.265892
v 0.314104 2.939386 0.217383
v 0.314104 3.237129 0.217384
v 0.000000 3.237129 0.265892
v 0.238084 2.721735 -0.178400
v 0.000000 2.721735 -0.178399
v 0.000000 2.939386 -0.241564
v 0.314104 2.939386 -0.217383
v 0.314104 2.939386 -0.217383
v 0.000000 2.939386 -0.241564
v 0.000000 3.237129 -0.241564
v 0.314104 3.237129 -0.217383
v 0.392440 1.272781 -0.181548
v 0.424811 1.453685 -0.189147
v 0.425043 1.455604 0.187045
v 0.393565 1.295616 0.179979
v 0.000000 1.278093 -0.259960
v 0.000000 1.451858 -0.270691
v 0.424811 1.453685 -0.189147
v 0.392440 1.272781 -0.181548
v 0.393565 1.295616 0.179979
v 0.425043 1.455604 0.187045
v 0.000021 1.457439 0.256177
v 0.000000 1.284307 0.240173
v 0.376159 1.218522 0.184061
v 0.393565 1.295616 0.179979
v 0.000000 1.284307 0.240173
v 0.000000 1.199241 0.225750
v 0.000000 1.194541 -0.254341
v 0.000000 1.278093 -0.259960
v 0.392440 1.272781 -0.181548
v 0.374607 1.186822 -0.171402
v 0.374607 1.186822 -0.171402
v 0.392440 1.272781 -0.181548
v 0.393565 1.295616 0.179979
v 0.376159 1.218522 0.184061
v 0.314104 3.021092 0.018687
v 0.314104 3.155423 0.018687
v 0.314104 3.155423 -0.018686
v 0.314104 3.021092 -0.018686
v 0.376159 3.021092 0.018687
v 0.376159 3.021092 -0.018686
v 0.376159 3.155423 -0.018686
v 0.376159 3.155423 0.018687
v 0.314104 3.021092 0.018687
v 0.314104 3.021092 -0.018686
v 0.376159 3.021092 -0.018686
v 0.376159 3.021092 0.018687
v 0.314104 3.021092 -0.018686
v 0.314104 3.155423 -0.018686
v 0.376159 3.155423 -0.018686
v 0.376159 3.021092 -0.018686
v 0.314104 3.155423 -0.018686
v 0.314104 3.155423 0.018687
v 0.376159 3.155423 0.018687
v 0.376159 3.155423 -0.018686
v 0.314104 3.155423 0.018687
v 0.314104 3.021092 0.018687
v 0.376159 3.021092 0.018687
v 0.376159 3.155423 0.018687
v 0.157052 3.035251 0.241638
v 0.157052 3.141264 0.241638
v 0.212971 3.141264 0.233002
v 0.212971 3.035251 0.233002
v 0.101133 3.035251 0.250274
v 0.101133 3.141264 0.250274
v 0.157052 3.141264 0.241638
v 0.157052 3.035251 0.241638
v 0.159453 3.035251 0.257187
v 0.215372 3.035251 0.248551
v 0.215372 3.141264 0.248551
v 0.159453 3.141264 0.257187
v 0.103534 3.035251 0.265823
v 0.159453 3.035251 0.257187
v 0.159453 3.141264 0.257187
v 0.103534 3.141264 0.265823
v 0.212971 3.141264 0.233002
v 0.157052 3.141264 0.241638
v 0.159453 3.141264 0.257187
v 0.215372 3.141264 0.248551
v 0.157052 3.141264 0.241638
v 0.101133 3.141264 0.250274
v 0.103534 3.141264 0.265823
v 0.159453 3.141264 0.257187
v 0.101133 3.141264 0.250274
v 0.101133 3.035251 0.250274
v 0.103534 3.035251 0.265823
v 0.103534 3.141264 0.265823
v 0.157052 3.035251 0.241638
v 0.212971 3.035251 0.233002
v 0.215372 3.035251 0.248551
v 0.159453 3.035251 0.257187
v 0.101133 3.035251 0.250274
v 0.157052 3.035251 0.241638
v 0.159453 3.035251 0.257187
v 0.103534 3.035251 0.265823
v 0.212971 3.035251 0.233002
v 0.212971 3.141264 0.233002
v 0.215372 3.141264 0.248551
v 0.215372 3.035251 0.248551
v 0.601934 2.297068 -0.116476
v 0.644172 2.274607 0.060344
v 0.662951 2.018943 0.023761
v 0.623695 2.031687 -0.133306
v 0.644172 2.274607 0.060344
v 0.453012 2.219298 0.106822
v 0.464277 1.994582 0.071439
v 0.662951 2.018943 0.023761
v 0.521215 2.196978 -0.086579
v 0.601934 2.297068 -0.116476
v 0.623695 2.031687 -0.133306
v 0.435586 2.012711 -0.085504
v 0.453012 2.219298 0.106822
v 0.521215 2.196978 -0.086579
v 0.435586 2.012711 -0.085504
v 0.464277 1.994582 0.071439
v -0.089317 1.116474 0.181910
v -0.089024 1.105926 -0.170900
v -0.437694 2.462683 0.180458
v -0.631629 2.284045 0.088900
v -0.439209 2.208595 0.085747
v -0.365789 2.075113 0.202592
v 0.000000 2.016963 -0.253991
v -0.392146 2.033271 -0.205383
v -0.435723 2.481849 -0.176468
v 0.000000 2.484494 -0.253990
v -0.435723 2.481849 -0.176468
v -0.182010 2.555645 -0.114496
v 0.000000 2.555645 -0.125308
v 0.000000 2.484494 -0.253990
v -0.365789 2.075113 0.202592
v 0.000000 2.016963 0.276374
v 0.000000 2.469321 0.249993
v -0.437694 2.462683 0.180458
v -0.425043 1.455604 0.187045
v 0.000021 1.457439 0.256177
v -0.000018 1.566267 0.274657
v -0.421238 1.564607 0.178514
v -0.421238 1.564607 0.178514
v -0.000018 1.566267 0.274657
v 0.000000 2.016963 0.276374
v -0.365789 2.075113 0.202592
v 0.000000 1.451858 -0.270691
v -0.424811 1.453685 -0.189148
v -0.421238 1.564607 -0.178514
v -0.000188 1.562854 -0.285240
v -0.000188 1.562854 -0.285240
v -0.421238 1.564607 -0.178514
v -0.392146 2.033271 -0.205383
v 0.000000 2.016963 -0.253991
v -0.424811 1.453685 -0.189148
v -0.425043 1.455604 0.187045
v -0.421238 1.564607 0.178514
v -0.421238 1.564607 -0.178514
v -0.421238 1.564607 -0.178514
v -0.421238 1.564607 0.178514
v -0.365789 2.075113 0.202592
v -0.392146 2.033271 -0.205383
v -0.089317 1.116474 0.181910
v -0.143962 1.037424 0.133003
v -0.143048 1.018649 -0.089662
v -0.089024 1.105926 -0.170900
v 0.000000 1.108312 -0.173806
v -0.089024 1.105926 -0.170900
v -0.374607 1.186822 -0.171402
v 0.000000 1.194541 -0.254341
v -0.089317 1.116474 0.181910
v 0.000000 1.115988 0.181688
v 0.000000 1.199241 0.225750
v -0.376159 1.218522 0.184061
v -0.346111 1.019292 -0.087990
v -0.348792 0.721054 -0.055946
v -0.349767 0.735240 0.165345
v -0.347152 1.040491 0.134699
v -0.376159 1.218522 0.184061
v -0.347152 1.040491 0.134699
v -0.143962 1.037424 0.133003
v -0.089317 1.116474 0.181910
v -0.374607 1.186822 -0.171402
v -0.346111 1.019292 -0.087990
v -0.347152 1.040491 0.134699
v -0.376159 1.218522 0.184061
v -0.089024 1.105926 -0.170900
v -0.143048 1.018649 -0.089662
v -0.346111 1.019292 -0.087990
v -0.374607 1.186822 -0.171402
v -0.146835 0.734282 0.166529
v -0.147229 0.641474 0.172491
v -0.146098 0.649520 -0.050038
v -0.145857 0.720538 -0.054773
v -0.347152 1.040491 0.134699
v -0.349767 0.735240 0.165345
v -0.146835 0.734282 0.166529
v -0.143962 1.037424 0.133003
v -0.143962 1.037424 0.133003
v -0.146835 0.734282 0.166529
v -0.145857 0.720538 -0.054773
v -0.143048 1.018649 -0.089662
v -0.143048 1.018649 -0.089662
v -0.145857 0.720538 -0.054773
v -0.348792 0.721054 -0.055946
v -0.346111 1.019292 -0.087990
v -0.146098 0.649520 -0.050038
v -0.145583 0.577095 -0.057589
v -0.348516 0.576067 -0.058858
v -0.349036 0.649020 -0.051212
v -0.145857 0.720538 -0.054773
v -0.146098 0.649520 -0.050038
v -0.349036 0.649020 -0.051212
v -0.348792 0.721054 -0.055946
v -0.348792 0.721054 -0.055946
v -0.349036 0.649020 -0.051212
v -0.350168 0.641339 0.171350
v -0.349767 0.735240 0.165345
v -0.349767 0.735240 0.165345
v -0.350168 0.641339 0.171350
v -0.147229 0.641474 0.172491
v -0.146835 0.734282 0.166529
v -0.353954 0.244574 -0.107787
v -0.345367 0.156653 -0.108575
v -0.345821 0.144080 0.112298
v -0.354962 0.220627 0.130607
v -0.348516 0.576067 -0.058858
v -0.349683 0.555028 0.163529
v -0.350168 0.641339 0.171350
v -0.349683 0.555028 0.163529
v -0.146752 0.556248 0.164845
v -0.147229 0.641474 0.172491
v -0.147229 0.641474 0.172491
v -0.146752 0.556248 0.164845
v -0.145583 0.577095 -0.057589
v -0.146098 0.649520 -0.050038
v -0.142894 0.144069 0.112606
v -0.142708 0.005540 0.111014
v -0.142003 0.013656 -0.117507
v -0.142430 0.157768 -0.107543
v -0.354962 0.220627 0.130607
v -0.345821 0.144080 0.112298
v -0.142894 0.144069 0.112606
v -0.135892 0.221877 0.131643
v -0.135892 0.221877 0.131643
v -0.142894 0.144069 0.112606
v -0.142430 0.157768 -0.107543
v -0.134890 0.245902 -0.106599
v -0.134890 0.245902 -0.106599
v -0.142430 0.157768 -0.107543
v -0.345367 0.156653 -0.108575
v -0.353954 0.244574 -0.107787
v -0.142003 0.013656 -0.117507
v -0.142708 0.005540 0.111014
v -0.345656 0.005568 0.111057
v -0.344946 0.012932 -0.118139
v -0.142430 0.157768 -0.107543
v -0.142003 0.013656 -0.117507
v -0.344946 0.012932 -0.118139
v -0.345367 0.156653 -0.108575
v -0.345367 0.156653 -0.108575
v -0.344946 0.012932 -0.118139
v -0.345656 0.005568 0.111057
v -0.345821 0.144080 0.112298
v -0.345656 0.005568 0.111057
v -0.345667 0.006312 0.244866
v -0.345666 0.121140 0.244867
v -0.345821 0.144080 0.112298
v -0.142721 0.006310 0.244866
v -0.142721 0.006314 0.391155
v -0.345667 0.006316 0.391156
v -0.345667 0.006312 0.244866
v -0.142738 0.120789 0.244865
v -0.142721 0.006310 0.244866
v -0.142708 0.005540 0.111014
v -0.345656 0.005568 0.111057
v -0.345821 0.144080 0.112298
v -0.345666 0.121140 0.244867
v -0.142738 0.120789 0.244865
v -0.142894 0.144069 0.112606
v -0.345666 0.070364 0.391156
v -0.345667 0.006316 0.391156
v -0.142721 0.006314 0.391155
v -0.142720 0.070362 0.391156
v -0.142720 0.070362 0.391156
v -0.142721 0.006314 0.391155
v -0.345666 0.121140 0.244867
v -0.345666 0.070364 0.391156
v -0.142720 0.070362 0.391156
v -0.142738 0.120789 0.244865
v -0.345667 0.006312 0.244866
v -0.345667 0.006316 0.391156
v -0.345666 0.070364 0.391156
v -0.345666 0.121140 0.244867
v -0.145583 0.577095 -0.057589
v -0.134890 0.245902 -0.106599
v -0.353954 0.244574 -0.107787
v -0.348516 0.576067 -0.058858
v -0.146752 0.556248 0.164845
v -0.135892 0.221877 0.131643
v -0.134890 0.245902 -0.106599
v -0.145583 0.577095 -0.057589
v -0.349683 0.555028 0.163529
v -0.354962 0.220627 0.130607
v -0.135892 0.221877 0.131643
v -0.146752 0.556248 0.164845
v -0.348516 0.576067 -0.058858
v -0.353954 0.244574 -0.107787
v -0.354962 0.220627 0.130607
v -0.349683 0.555028 0.163529
v -0.479751 1.988136 0.049150
v -0.546840 1.772964 0.011225
v -0.545685 1.778476 -0.127748
v -0.487759 2.010743 -0.111456
v -0.365789 2.075113 0.202592
v -0.439209 2.208595 0.085747
v -0.527345 2.195168 -0.093559
v -0.392146 2.033271 -0.205383
v -0.392146 2.033271 -0.205383
v -0.527345 2.195168 -0.093559
v -0.625368 2.309842 -0.094130
v -0.435723 2.481849 -0.176468
v -0.435723 2.481849 -0.176468
v -0.625368 2.309842 -0.094130
v -0.631629 2.284045 0.088900
v -0.437694 2.462683 0.180458
v -0.545685 1.778476 -0.127748
v -0.551798 1.725646 -0.125408
v -0.728718 1.730897 -0.124120
v -0.720259 1.810013 -0.125117
v -0.487759 2.010743 -0.111456
v -0.545685 1.778476 -0.127748
v -0.720259 1.810013 -0.125117
v -0.679407 2.050555 -0.108815
v -0.680443 2.033391 0.052671
v -0.721557 1.803225 0.013754
v -0.546840 1.772964 0.011225
v -0.479751 1.988136 0.049150
v -0.679407 2.050555 -0.108815
v -0.720259 1.810013 -0.125117
v -0.721557 1.803225 0.013754
v -0.680443 2.033391 0.052671
v -0.729792 1.750491 0.013350
v -0.728529 1.700277 0.025357
v -0.550771 1.704881 0.024491
v -0.553016 1.743870 0.011964
v -0.721557 1.803225 0.013754
v -0.729792 1.750491 0.013350
v -0.553016 1.743870 0.011964
v -0.546840 1.772964 0.011225
v -0.720259 1.810013 -0.125117
v -0.728718 1.730897 -0.124120
v -0.729792 1.750491 0.013350
v -0.721557 1.803225 0.013754
v -0.546840 1.772964 0.011225
v -0.553016 1.743870 0.011964
v -0.551798 1.725646 -0.125408
v -0.545685 1.778476 -0.127748
v -0.550771 1.704881 0.024491
v -0.552456 1.376263 0.092759
v -0.550999 1.349757 -0.014717
v -0.548940 1.675401 -0.111868
v -0.728718 1.730897 -0.124120
v -0.726823 1.670149 -0.111104
v -0.728529 1.700277 0.025357
v -0.729792 1.750491 0.013350
v -0.553016 1.743870 0.011964
v -0.550771 1.704881 0.024491
v -0.548940 1.675401 -0.111868
v -0.551798 1.725646 -0.125408
v -0.551798 1.725646 -0.125408
v -0.548940 1.675401 -0.111868
v -0.726823 1.670149 -0.111104
v -0.728718 1.730897 -0.124120
v -0.691809 1.360435 0.094773
v -0.701952 1.317618 0.117581
v -0.532324 1.336884 0.115130
v -0.552456 1.376263 0.092759
v -0.548940 1.675401 -0.111868
v -0.550999 1.349757 -0.014717
v -0.690352 1.333929 -0.012703
v -0.726823 1.670149 -0.111104
v -0.728529 1.700277 0.025357
v -0.691809 1.360435 0.094773
v -0.552456 1.376263 0.092759
v -0.550771 1.704881 0.024491
v -0.726823 1.670149 -0.111104
v -0.690352 1.333929 -0.012703
v -0.691809 1.360435 0.094773
v -0.728529 1.700277 0.025357
v -0.701952 1.317618 0.117581
v -0.681665 1.144469 0.160559
v -0.512037 1.163736 0.158108
v -0.532324 1.336884 0.115130
v -0.690352 1.333929 -0.012703
v -0.700178 1.285354 -0.013243
v -0.701952 1.317618 0.117581
v -0.691809 1.360435 0.094773
v -0.552456 1.376263 0.092759
v -0.532324 1.336884 0.115130
v -0.530551 1.304620 -0.015694
v -0.550999 1.349757 -0.014717
v -0.550999 1.349757 -0.014717
v -0.530551 1.304620 -0.015694
v -0.700178 1.285354 -0.013243
v -0.690352 1.333929 -0.012703
v -0.510263 1.131471 0.027283
v -0.512037 1.163736 0.158108
v -0.681665 1.144469 0.160559
v -0.679891 1.112205 0.029735
v -0.700178 1.285354 -0.013243
v -0.679891 1.112205 0.029735
v -0.681665 1.144469 0.160559
v -0.701952 1.317618 0.117581
v -0.532324 1.336884 0.115130
v -0.512037 1.163736 0.158108
v -0.510263 1.131471 0.027283
v -0.530551 1.304620 -0.015694
v -0.530551 1.304620 -0.015694
v -0.510263 1.131471 0.027283
v -0.679891 1.112205 0.029735
v -0.700178 1.285354 -0.013243
v 0.000000 2.552244 0.125164
v 0.000000 2.674893 0.096001
v -0.118760 2.674893 0.096000
v -0.182010 2.552244 0.114497
v -0.437694 2.462683 0.180458
v -0.182010 2.552244 0.114497
v -0.182010 2.555645 -0.114496
v -0.435723 2.481849 -0.176468
v 0.000000 2.469321 0.249993
v 0.000000 2.552244 0.125164
v -0.182010 2.552244 0.114497
v -0.437694 2.462683 0.180458
v -0.118760 2.674893 -0.096000
v -0.238084 2.721735 -0.178400
v -0.182010 2.552244 0.114497
v -0.118760 2.674893 0.096000
v -0.118760 2.674893 -0.096000
v -0.182010 2.555645 -0.114496
v -0.182010 2.555645 -0.114496
v -0.118760 2.674893 -0.096000
v 0.000000 2.674893 -0.096000
v 0.000000 2.555645 -0.125308
v -0.314103 3.237129 -0.217383
v -0.238084 3.454781 -0.178399
v 0.000000 3.454781 -0.178399
v 0.000000 3.237129 -0.241564
v 0.000000 2.674893 0.096001
v 0.000000 2.721735 0.178401
v -0.238084 2.721735 0.178400
v -0.118760 2.674893 0.096000
v -0.118760 2.674893 0.096000
v -0.238084 2.721735 0.178400
v -0.238084 2.721735 -0.178400
v -0.118760 2.674893 -0.096000
v -0.238084 3.454781 -0.178399
v -0.238084 3.454781 0.178400
v 0.000000 3.237129 0.265892
v 0.000000 3.454781 0.178400
v -0.238084 3.454781 0.178400
v -0.314103 3.237129 0.217384
v -0.314103 3.237129 0.217384
v -0.238084 3.454781 0.178400
v -0.238084 3.454781 -0.178399
v -0.314103 3.237129 -0.217383
v -0.238084 2.721735 0.178400
v -0.314103 2.939386 0.217383
v -0.314103 2.939386 -0.217383
v -0.238084 2.721735 -0.178400
v -0.314103 2.939386 0.217383
v -0.314103 3.237129 0.217384
v -0.314103 3.237129 -0.217383
v -0.314103 2.939386 -0.217383
v 0.000000 2.721735 0.178401
v 0.000000 2.939386 0.265892
v -0.314103 2.939386 0.217383
v -0.238084 2.721735 0.178400
v 0.000000 2.939386 0.265892
v 0.000000 3.237129 0.265892
v -0.314103 3.237129 0.217384
v -0.314103 2.939386 0.217383
v -0.238084 2.721735 -0.178400
v -0.314103 2.939386 -0.217383
v 0.000000 2.939386 -0.241564
v 0.000000 2.721735 -0.178399
v -0.314103 2.939386 -0.217383
v -0.314103 3.237129 -0.217383
v 0.000000 3.237129 -0.241564
v 0.000000 2.939386 -0.241564
v -0.392440 1.272781 -0.181548
v -0.393565 1.295616 0.179979
v -0.425043 1.455604 0.187045
v -0.424811 1.453685 -0.189148
v 0.000000 1.278093 -0.259960
v -0.392440 1.272781 -0.181548
v -0.424811 1.453685 -0.189148
v 0.000000 1.451858 -0.270691
v -0.393565 1.295616 0.179979
v 0.000000 1.284307 0.240173
v 0.000021 1.457439 0.256177
v -0.425043 1.455604 0.187045
v -0.376159 1.218522 0.184061
v 0.000000 1.199241 0.225750
v 0.000000 1.284307 0.240173
v -0.393565 1.295616 0.179979
v 0.000000 1.194541 -0.254341
v -0.374607 1.186822 -0.171402
v -0.392440 1.272781 -0.181548
v 0.000000 1.278093 -0.259960
v -0.374607 1.186822 -0.171402
v -0.376159 1.218522 0.184061
v -0.393565 1.295616 0.179979
v -0.392440 1.272781 -0.181548
v -0.314103 3.021092 0.018687
v -0.314103 3.021092 -0.018686
v -0.314103 3.155423 -0.018686
v -0.314103 3.155423 0.018687
v -0.376159 3.021092 0.018687
v -0.376159 3.155423 0.018687
v -0.376159 3.155423 -0.018686
v -0.376159 3.021092 -0.018686
v -0.314103 3.021092 0.018687
v -0.376159 3.021092 0.018687
v -0.376159 3.021092 -0.018686
v -0.314103 3.021092 -0.018686
v -0.314103 3.021092 -0.018686
v -0.376159 3.021092 -0.018686
v -0.376159 3.155423 -0.018686
v -0.314103 3.155423 -0.018686
v -0.314103 3.155423 -0.018686
v -0.376159 3.155423 -0.018686
v -0.376159 3.155423 0.018687
v -0.314103 3.155423 0.018687
v -0.314103 3.155423 0.018687
v -0.376159 3.155423 0.018687
v -0.376159 3.021092 0.018687
v -0.314103 3.021092 0.018687
v -0.157052 3.035251 0.241638
v -0.212971 3.035251 0.233002
v -0.212971 3.141264 0.233002
v -0.157052 3.141264 0.241638
v -0.101132 3.035251 0.250274
v -0.157052 3.035251 0.241638
v -0.157052 3.141264 0.241638
v -0.101132 3.141264 0.250274
v -0.159453 3.035251 0.257187
v -0.159453 3.141264 0.257187
v -0.215372 3.141264 0.248551
v -0.215372 3.035251 0.248551
v -0.103534 3.035251 0.265823
v -0.103534 3.141264 0.265823
v -0.159453 3.141264 0.257187
v -0.159453 3.035251 0.257187
v -0.212971 3.141264 0.233002
v -0.215372 3.141264 0.248551
v -0.159453 3.141264 0.257187
v -0.157052 3.141264 0.241638
v -0.157052 3.141264 0.241638
v -0.159453 3.141264 0.257187
v -0.103534 3.141264 0.265823
v -0.101132 3.141264 0.250274
v -0.101132 3.141264 0.250274
v -0.103534 3.141264 0.265823
v -0.103534 3.035251 0.265823
v -0.101132 3.035251 0.250274
v -0.157052 3.035251 0.241638
v -0.159453 3.035251 0.257187
v -0.215372 3.035251 0.248551
v -0.212971 3.035251 0.233002
v -0.101132 3.035251 0.250274
v -0.103534 3.035251 0.265823
v -0.159453 3.035251 0.257187
v -0.157052 3.035251 0.241638
v -0.212971 3.035251 0.233002
v -0.215372 3.035251 0.248551
v -0.215372 3.141264 0.248551
v -0.212971 3.141264 0.233002
v -0.625368 2.309842 -0.094130
v -0.679407 2.050555 -0.108815
v -0.680443 2.033391 0.052671
v -0.631629 2.284045 0.088900
v -0.631629 2.284045 0.088900
v -0.680443 2.033391 0.052671
v -0.479751 1.988136 0.049150
v -0.439209 2.208595 0.085747
v -0.527345 2.195168 -0.093559
v -0.487759 2.010743 -0.111456
v -0.679407 2.050555 -0.108815
v -0.625368 2.309842 -0.094130
v -0.439209 2.208595 0.085747
v -0.479751 1.988136 0.049150
v -0.487759 2.010743 -0.111456
v -0.527345 2.195168 -0.093559
vn -0.0278 -0.9992 0.0299
vn 0.0054 -0.9998 0.0216
vn 0.5555 -0.2043 0.8060
vn 0.8608 -0.1172 0.4952
vn 0.6886 -0.1748 0.7037
vn 0.3442 -0.2614 0.9018
vn 0.1508 0.0138 -0.9885
vn 0.1321 0.0290 -0.9908
vn 0.1468 0.0170 -0.9890
vn 0.1631 0.0026 -0.9866
vn 0.0797 0.8435 -0.5312
vn 0.0787 0.8427 -0.5325
vn 0.0795 0.8424 -0.5330
vn 0.0768 0.8408 -0.5359
vn 0.1602 0.0668 0.9848
vn 0.1731 0.0788 0.9817
vn 0.1604 0.0670 0.9848
vn 0.1482 0.0546 0.9874
vn 0.1911 -0.0428 0.9806
vn 0.1913 -0.0435 0.9806
vn 0.1916 -0.0402 0.9807
vn 0.1915 -0.0396 0.9807
vn 0.1979 -0.0277 0.9798
vn 0.1908 -0.0300 0.9812
vn 0.1941 -0.0310 0.9805
vn 0.2007 -0.0249 0.9793
vn 0.2185 -0.0164 -0.9757
vn 0.2190 -0.0185 -0.9755
vn 0.2155 -0.0109 -0.9765
vn 0.2151 -0.0086 -0.9766
vn 0.1921 0.0145 -0.9813
vn 0.1944 0.0114 -0.9809
vn 0.1901 0.0160 -0.9816
vn 0.1863 0.0214 -0.9823
vn 0.9995 0.0322 -0.0000
vn 0.9994 0.0348 -0.0008
vn 0.9976 0.0661 0.0227
vn 0.9965 0.0833 -0.0000
vn -0.8568 -0.5154 0.0161
vn -0.8058 -0.5898 0.0530
vn 0.1318 -0.6057 -0.7847
vn 0.1297 -0.5980 -0.7910
vn 0.1324 -0.6074 -0.7833
vn 0.1437 -0.6687 -0.7296
vn 0.0969 -0.3820 0.9191
vn 0.0992 -0.3807 0.9193
vn 0.0942 -0.3838 0.9186
vn 0.0929 -0.3901 0.9161
vn 1.0000 0.0080 -0.0054
vn 1.0000 0.0085 -0.0050
vn 0.0685 -0.3507 0.9340
vn 0.0610 -0.3546 0.9330
vn 0.0696 -0.3574 0.9313
vn 0.0763 -0.3594 0.9301
vn 0.9865 -0.1636 0.0103
vn 0.9867 -0.1624 0.0108
vn 0.0931 -0.5298 -0.8430
vn 0.0952 -0.5316 -0.8416
vn 0.0913 -0.5349 -0.8400
vn 0.0902 -0.5294 -0.8436
vn -1.0000 -0.0031 0.0046
vn -1.0000 -0.0039 0.0049
vn -0.0100 0.1098 0.9939
vn 0.0053 0.0999 0.9950
vn -0.9999 -0.0089 0.0049
vn -0.9999 -0.0089 0.0050
vn 0.0085 -0.1068 -0.9942
vn -0.0054 -0.1163 -0.9932
vn -0.0055 0.1043 -0.9945
vn -0.0057 0.1037 -0.9946
vn -0.0056 -0.0656 -0.9978
vn -0.0059 -0.0665 -0.9978
vn 1.0000 0.0040 -0.0047
vn 1.0000 0.0031 -0.0050
vn 0.0055 0.0641 0.9979
vn 0.0057 0.0638 0.9979
vn 0.9933 -0.1149 -0.0157
vn 0.9952 -0.0971 -0.0076
vn 1.0000 -0.0051 -0.0053
vn 1.0000 -0.0065 -0.0059
vn 0.0055 -0.0894 0.9960
vn 0.0059 -0.0903 0.9959
vn -1.0000 0.0066 0.0053
vn -1.0000 0.0051 0.0057
vn -1.0000 0.0028 0.0023
vn -1.0000 0.0013 0.0031
vn 0.0032 -0.2374 0.9714
vn 0.0015 -0.2328 0.9725
vn -0.9964 -0.0852 -0.0044
vn -0.9960 -0.0888 -0.0034
vn -0.0054 0.0095 -0.9999
vn -0.0050 0.0103 -0.9999
vn -0.0037 -0.9995 -0.0321
vn 0.0001 -0.9994 -0.0355
vn -0.0047 0.0664 -0.9978
vn -0.0029 0.0690 -0.9976
vn 1.0000 -0.0012 -0.0021
vn 1.0000 -0.0027 -0.0032
vn 1.0000 -0.0012 0.0010
vn 1.0000 -0.0000 -0.0001
vn -0.0000 -1.0000 -0.0000
vn -1.0000 0.0013 0.0001
vn -1.0000 0.0001 -0.0012
vn 0.0001 -1.0000 0.0056
vn -0.0000 -1.0000 0.0058
vn 0.0002 0.9849 0.1734
vn -0.0017 0.9854 0.1705
vn -0.0000 -0.0000 1.0000
vn -1.0000 0.0001 -0.0000
vn -1.0000 -0.0000 -0.0001
vn -0.0016 0.9454 0.3259
vn -0.0000 0.9447 0.3279
vn 1.0000 -0.0000 -0.0000
vn -0.0054 0.1459 -0.9893
vn -0.0045 0.1465 -0.9892
vn -0.9995 0.0311 0.0082
vn -0.9995 0.0317 0.0074
vn 0.0059 -0.0990 0.9951
vn 0.0041 -0.0979 0.9952
vn 0.9999 0.0162 -0.0037
vn 0.9999 0.0168 -0.0025
vn -0.9773 -0.1351 0.1631
vn -0.9567 -0.1849 0.2249
vn 0.7406 -0.6647 0.0983
vn 0.9106 -0.2245 0.3470
vn 0.5723 -0.2066 -0.7936
vn 0.3905 -0.0224 -0.9204
vn 0.5374 -0.1672 -0.8266
vn 0.7843 -0.6162 -0.0717
vn 0.7024 0.7115 -0.0192
vn 0.7036 0.7105 -0.0021
vn 0.7123 0.7012 -0.0315
vn 0.7229 0.6884 -0.0590
vn -0.2111 -0.0907 -0.9732
vn -0.1680 0.0381 -0.9851
vn -0.2493 0.0328 -0.9679
vn -0.2235 0.0574 -0.9730
vn 0.2478 -0.1464 0.9577
vn 0.2246 -0.1307 0.9656
vn 0.9694 0.0633 -0.2371
vn 0.9710 0.0674 -0.2296
vn 0.1764 0.2513 0.9517
vn 0.1708 0.2745 0.9463
vn 0.2230 -0.0986 0.9698
vn 0.1752 0.0915 0.9803
vn 0.9721 -0.0317 -0.2324
vn 0.9783 0.0495 -0.2013
vn -0.9705 -0.0713 0.2302
vn -0.9811 0.0483 0.1872
vn -0.9843 0.0599 0.1658
vn -0.9859 0.0610 0.1562
vn 0.9740 -0.1499 -0.1696
vn 0.9834 -0.0870 -0.1590
vn -0.9780 0.1098 0.1776
vn -0.9743 0.1785 0.1375
vn -0.1755 -0.2454 -0.9534
vn -0.1676 -0.2240 -0.9601
vn 0.1785 0.4775 0.8603
vn -0.1709 -0.2848 -0.9432
vn -0.1694 -0.2843 -0.9437
vn 0.1671 0.2023 0.9650
vn 0.1637 0.2043 0.9651
vn 0.9758 -0.1691 -0.1388
vn 0.9782 -0.1626 -0.1294
vn 0.1663 0.2394 0.9566
vn 0.9549 0.2028 -0.2168
vn -0.9110 0.4087 0.0561
vn -0.1431 0.0145 -0.9896
vn -0.0693 -0.9648 0.2535
vn 0.9836 -0.1085 -0.1439
vn -0.9836 0.1085 0.1439
vn -0.1663 -0.2394 -0.9566
vn 0.0347 0.1992 0.9793
vn 0.0346 0.1993 0.9793
vn 0.3090 0.9506 0.0289
vn 0.3142 0.9490 0.0258
vn 0.3121 0.9497 0.0262
vn 0.3053 0.9518 0.0306
vn 0.0896 0.7911 0.6052
vn 0.0944 0.7855 0.6116
vn 0.0936 0.7881 0.6083
vn 0.0846 0.7953 0.6003
vn -0.0000 -0.8693 -0.4942
vn 0.8861 0.4634 0.0037
vn 0.8861 0.4634 0.0038
vn 0.0352 0.2054 -0.9781
vn 0.0352 0.2054 -0.9780
vn 0.0425 0.2353 -0.9710
vn -0.0000 -0.8693 0.4942
vn 0.3654 -0.9308 -0.0000
vn -0.0000 1.0000 -0.0000
vn 0.0837 0.2915 0.9529
vn 0.9441 0.3297 -0.0000
vn 0.9441 -0.3297 -0.0000
vn 0.0837 -0.2915 0.9529
vn 0.1526 -0.0000 0.9883
vn 0.0425 -0.2353 -0.9710
vn 0.0768 -0.0000 -0.9970
vn 0.9844 -0.1761 0.0003
vn 0.9811 -0.1934 0.0092
vn 0.1919 -0.0697 -0.9789
vn 0.1925 -0.0712 -0.9787
vn 0.1907 -0.0663 -0.9794
vn 0.1900 -0.0643 -0.9797
vn 0.1546 -0.0872 0.9841
vn 0.1522 -0.0915 0.9841
vn 0.1587 -0.0781 0.9842
vn 0.1610 -0.0728 0.9843
vn 0.1393 -0.0433 0.9893
vn 0.1384 -0.0332 0.9898
vn 0.1300 -0.1039 0.9861
vn 0.1294 -0.1127 0.9852
vn 0.1987 -0.0890 -0.9760
vn 0.1975 -0.0805 -0.9770
vn 0.2063 -0.1333 -0.9694
vn 0.2075 -0.1424 -0.9678
vn 0.9793 -0.2020 0.0097
vn 0.9755 -0.2194 0.0153
vn -1.0000 -0.0000 -0.0000
vn -0.0000 -0.0000 -1.0000
vn -0.1526 -0.0000 -0.9883
vn -0.9883 -0.0000 0.1526
vn 0.9883 -0.0000 -0.1526
vn 0.9704 0.1026 -0.2188
vn 0.9676 0.0942 -0.2342
vn 0.2711 -0.1364 0.9528
vn 0.2455 -0.1196 0.9620
vn -0.3773 0.0278 -0.9257
vn -0.2554 0.1131 -0.9602
vn -0.8517 0.3938 -0.3458
vn -0.9824 -0.0761 0.1708
vn -0.0054 -0.9998 0.0216
vn 0.0278 -0.9992 0.0299
vn -0.4785 -0.3034 0.8240
vn -0.1727 -0.3592 0.9171
vn -0.6851 -0.2523 0.6833
vn -0.8921 -0.1585 0.4232
vn -0.1510 0.0237 -0.9883
vn -0.1530 0.0222 -0.9880
vn -0.1482 0.0259 -0.9886
vn -0.1426 0.0289 -0.9894
vn -0.0797 0.8427 -0.5324
vn -0.0751 0.8336 -0.5473
vn -0.0798 0.8424 -0.5328
vn -0.0787 0.8427 -0.5326
vn -0.1730 0.0422 0.9840
vn -0.1859 0.0543 0.9811
vn -0.1726 0.0418 0.9841
vn -0.1605 0.0296 0.9866
vn -0.1911 -0.0429 0.9806
vn -0.1916 -0.0397 0.9807
vn -0.1916 -0.0403 0.9806
vn -0.1913 -0.0435 0.9806
vn -0.2123 -0.0137 0.9771
vn -0.2007 -0.0249 0.9793
vn -0.2119 -0.0138 0.9772
vn -0.2220 0.0006 0.9750
vn -0.2189 -0.0169 -0.9756
vn -0.2150 -0.0086 -0.9766
vn -0.2155 -0.0110 -0.9764
vn -0.2194 -0.0193 -0.9755
vn -0.1880 0.0102 -0.9821
vn -0.1866 0.0133 -0.9823
vn -0.1856 0.0121 -0.9826
vn -0.1853 0.0115 -0.9826
vn -0.9994 0.0348 -0.0008
vn -0.9995 0.0322 -0.0000
vn -0.9942 0.1080 -0.0000
vn -0.9962 0.0651 0.0577
vn 0.8058 -0.5898 0.0530
vn 0.8568 -0.5154 0.0161
vn -0.1318 -0.6057 -0.7847
vn -0.1437 -0.6686 -0.7296
vn -0.1324 -0.6074 -0.7833
vn -0.1297 -0.5980 -0.7910
vn -0.0969 -0.3820 0.9191
vn -0.0929 -0.3901 0.9161
vn -0.0942 -0.3838 0.9186
vn -0.0992 -0.3807 0.9193
vn -1.0000 0.0085 -0.0050
vn -1.0000 0.0080 -0.0054
vn -0.0685 -0.3507 0.9340
vn -0.0763 -0.3594 0.9301
vn -0.0696 -0.3574 0.9313
vn -0.0610 -0.3546 0.9330
vn -0.9867 -0.1624 0.0108
vn -0.9865 -0.1636 0.0103
vn -0.0931 -0.5298 -0.8430
vn -0.0902 -0.5294 -0.8436
vn -0.0913 -0.5349 -0.8400
vn -0.0952 -0.5316 -0.8416
vn 1.0000 -0.0039 0.0049
vn 1.0000 -0.0031 0.0046
vn -0.0053 0.0999 0.9950
vn 0.0100 0.1098 0.9939
vn 0.9999 -0.0089 0.0050
vn 0.9999 -0.0089 0.0049
vn 0.0054 -0.1163 -0.9932
vn -0.0085 -0.1068 -0.9942
vn 0.0057 0.1037 -0.9946
vn 0.0055 0.1043 -0.9945
vn 0.0059 -0.0665 -0.9978
vn 0.0056 -0.0656 -0.9978
vn -1.0000 0.0031 -0.0050
vn -1.0000 0.0040 -0.0047
vn -0.0057 0.0638 0.9979
vn -0.0055 0.0641 0.9979
vn -0.9952 -0.0971 -0.0076
vn -0.9933 -0.1149 -0.0157
vn -1.0000 -0.0065 -0.0059
vn -1.0000 -0.0051 -0.0053
vn -0.0059 -0.0903 0.9959
vn -0.0055 -0.0894 0.9960
vn 1.0000 0.0051 0.0057
vn 1.0000 0.0066 0.0053
vn 1.0000 0.0013 0.0031
vn 1.0000 0.0028 0.0023
vn -0.0015 -0.2328 0.9725
vn -0.0032 -0.2374 0.9714
vn 0.9960 -0.0888 -0.0034
vn 0.9964 -0.0852 -0.0044
vn 0.0050 0.0103 -0.9999
vn 0.0054 0.0095 -0.9999
vn -0.0001 -0.9994 -0.0355
vn 0.0037 -0.9995 -0.0321
vn 0.0029 0.0690 -0.9976
vn 0.0047 0.0664 -0.9978
vn -1.0000 -0.0027 -0.0032
vn -1.0000 -0.0012 -0.0021
vn -1.0000 -0.0012 0.0010
vn 1.0000 0.0001 -0.0012
vn 1.0000 0.0013 0.0001
vn -0.0001 -1.0000 0.0056
vn 0.0017 0.9854 0.1705
vn -0.0002 0.9849 0.1734
vn 1.0000 0.0001 -0.0000
vn 0.0016 0.9454 0.3259
vn 0.0045 0.1465 -0.9892
vn 0.0054 0.1459 -0.9893
vn 0.9995 0.0317 0.0074
vn 0.9995 0.0311 0.0082
vn -0.0041 -0.0979 0.9952
vn -0.0059 -0.0990 0.9951
vn -0.9999 0.0168 -0.0025
vn -0.9999 0.0162 -0.0037
vn 0.9549 -0.2970 -0.0038
vn 0.9684 -0.2358 -0.0815
vn -0.8900 -0.1000 0.4449
vn -0.7212 -0.6828 0.1166
vn -0.5578 -0.1470 -0.8169
vn -0.7720 -0.6335 -0.0510
vn -0.5312 -0.1148 -0.8394
vn -0.4383 -0.0093 -0.8988
vn -0.6660 0.7435 0.0597
vn -0.6185 0.7772 0.1156
vn -0.6751 0.7359 0.0514
vn -0.7029 0.7109 0.0242
vn -0.0086 -0.0433 -0.9990
vn -0.0170 -0.0108 -0.9998
vn -0.0023 0.0705 -0.9975
vn 0.0003 0.0676 -0.9977
vn -0.0142 -0.1642 0.9863
vn -0.0204 -0.1674 0.9857
vn -0.9859 0.1675 -0.0010
vn -0.9847 0.1738 0.0122
vn -0.0013 0.2325 0.9726
vn 0.0190 0.3068 0.9516
vn 0.0075 -0.0088 0.9999
vn 0.0182 0.0215 0.9996
vn -0.9941 0.1060 -0.0229
vn -0.9880 0.1543 -0.0017
vn 0.9778 -0.2066 0.0361
vn 0.9934 -0.1148 0.0037
vn 0.9999 -0.0022 0.0141
vn 0.9999 -0.0022 0.0139
vn -0.9995 -0.0323 -0.0054
vn -0.9997 -0.0261 -0.0041
vn 0.9983 0.0578 0.0009
vn 0.9984 0.0571 0.0013
vn 0.0035 -0.2600 -0.9656
vn -0.0133 -0.2099 -0.9776
vn -0.0415 0.4774 0.8777
vn 0.0186 -0.2859 -0.9581
vn 0.0042 -0.2805 -0.9599
vn -0.0085 0.1992 0.9799
vn -0.0005 0.2034 0.9791
vn -0.9945 -0.1043 0.0122
vn -0.9944 -0.1052 0.0108
vn -0.0132 0.2394 0.9708
vn -0.9781 0.1986 -0.0622
vn -0.9781 0.1985 -0.0622
vn 0.9065 0.4126 -0.0895
vn -0.0161 0.0144 -0.9998
vn 0.1130 -0.9643 0.2394
vn -0.9935 -0.1128 0.0144
vn 0.9935 0.1128 -0.0144
vn 0.0132 -0.2394 -0.9708
vn -0.0347 0.1992 0.9793
vn -0.0346 0.1993 0.9793
vn -0.3040 0.9520 0.0363
vn -0.3086 0.9507 0.0303
vn -0.3064 0.9513 0.0344
vn -0.3027 0.9523 0.0396
vn -0.0847 0.7946 0.6012
vn -0.0846 0.7953 0.6003
vn -0.0845 0.7953 0.6004
vn -0.0832 0.7951 0.6008
vn -0.8861 0.4634 0.0037
vn -0.8861 0.4634 0.0038
vn -0.0352 0.2054 -0.9781
vn -0.0352 0.2054 -0.9780
vn -0.0425 0.2353 -0.9710
vn -0.0000 -0.8694 0.4942
vn -0.3654 -0.9308 -0.0000
vn -0.0837 0.2915 0.9529
vn -0.9441 0.3297 -0.0000
vn -0.9441 -0.3297 -0.0000
vn -0.0837 -0.2915 0.9529
vn -0.1526 -0.0000 0.9883
vn -0.0425 -0.2353 -0.9710
vn -0.0768 -0.0000 -0.9970
vn -0.9811 -0.1934 0.0092
vn -0.9844 -0.1761 0.0003
vn -0.1919 -0.0697 -0.9789
vn -0.1900 -0.0643 -0.9797
vn -0.1907 -0.0663 -0.9794
vn -0.1925 -0.0712 -0.9787
vn -0.1546 -0.0872 0.9841
vn -0.1610 -0.0728 0.9843
vn -0.1587 -0.0781 0.9842
vn -0.1522 -0.0915 0.9841
vn -0.1393 -0.0433 0.9893
vn -0.1294 -0.1127 0.9852
vn -0.1300 -0.1039 0.9861
vn -0.1388 -0.0333 0.9898
vn -0.1987 -0.0890 -0.9760
vn -0.2075 -0.1424 -0.9678
vn -0.2063 -0.1333 -0.9694
vn -0.1975 -0.0805 -0.9770
vn -0.9755 -0.2194 0.0153
vn -0.9793 -0.2020 0.0097
vn 0.1526 -0.0000 -0.9883
vn 0.9883 -0.0000 0.1526
vn -0.9883 -0.0000 -0.1526
vn -0.9790 0.2032 0.0153
vn -0.9814 0.1921 -0.0065
vn -0.0143 -0.1403 0.9900
vn -0.0448 -0.1556 0.9868
vn 0.0066 0.0980 -0.9952
vn 0.0578 0.0444 -0.9973
vn 0.9830 -0.1687 -0.0728
vn 0.8667 0.2290 -0.4432
vt 0.597656 0.449219
vt 0.035156 0.054688
vt 0.035156 0.054688
vt 0.792969 0.437500
vt 0.820312 0.566406
vt 0.597656 0.449219
vt 0.035156 0.054688
vt 0.035156 0.054688
vt 0.597656 0.449219
vt 0.597656 0.449219
vt 0.058745 0.072719
vt 0.942166 0.077641
vt 0.066127 0.062876
s 0
usemtl Material.003
f 1/1/1 2/1/1 3/1/1
f 1/1/2 3/1/2 4/1/2
s 1
f 5/2/3 6/2/4 7/2/5
f 5/2/3 7/2/5 8/2/6
f 9/2/7 10/2/8 11/2/9
f 9/2/7 11/2/9 12/2/10
f 13/2/11 14/2/12 15/2/13
f 13/2/11 15/2/13 16/3/14
f 17/2/15 18/2/16 19/2/17
f 17/2/15 19/2/17 20/2/18
f 21/2/19 22/2/20 23/2/21
f 21/2/19 23/2/21 24/2/22
f 25/2/23 26/2/24 27/2/25
f 25/2/23 27/2/25 28/2/26
f 29/2/27 30/2/28 31/2/29
f 29/2/27 31/2/29 32/2/30
f 33/2/31 34/2/32 35/2/33
f 33/2/31 35/2/33 36/2/34
s 0
f 37/2/35 38/2/35 39/2/35
f 37/2/36 39/2/36 40/2/36
f 41/2/37 42/2/37 43/2/37
f 41/2/38 43/2/38 44/2/38
f 45/4/39 46/4/39 47/4/39
f 45/4/40 47/4/40 48/4/40
s 1
f 49/4/41 50/4/42 51/4/43
f 49/4/41 51/4/43 52/4/44
f 53/4/45 54/4/46 55/4/47
f 53/4/45 55/4/47 56/4/48
s 0
f 57/4/49 58/4/49 59/4/49
f 57/4/50 59/4/50 60/4/50
s 1
f 61/4/51 62/4/52 63/4/53
f 61/4/51 63/4/53 64/4/54
s 0
f 65/4/55 66/4/55 67/4/55
f 65/4/56 67/4/56 68/4/56
s 1
f 69/4/57 70/4/58 71/4/59
f 69/4/57 71/4/59 72/4/60
s 0
f 73/4/61 74/4/61 75/4/61
f 73/4/62 75/4/62 76/4/62
f 77/4/63 78/4/63 79/4/63
f 77/4/64 79/4/64 80/4/64
f 81/4/65 82/4/65 83/4/65
f 81/4/66 83/4/66 84/4/66
f 85/4/67 86/4/67 87/4/67
f 85/4/68 87/4/68 88/4/68
f 89/4/69 90/4/69 91/4/69
f 89/4/70 91/4/70 92/4/70
f 93/4/71 94/4/71 95/4/71
f 93/4/72 95/4/72 96/4/72
f 97/4/73 98/4/73 99/4/73
f 97/4/74 99/4/74 100/4/74
f 101/4/75 102/4/75 103/4/75
f 101/4/76 103/4/76 104/4/76
f 105/5/77 106/5/77 107/5/77
f 105/5/78 107/5/78 108/5/78
f 100/4/79 99/4/79 109/4/79
f 100/4/80 109/4/80 110/4/80
f 111/4/81 112/4/81 113/4/81
f 111/4/82 113/4/82 114/4/82
f 115/4/83 116/4/83 117/4/83
f 115/4/84 117/4/84 118/4/84
f 119/5/85 120/5/85 121/5/85
f 119/5/86 121/5/86 122/5/86
f 123/5/87 124/5/87 125/5/87
f 123/5/88 125/5/88 126/5/88
f 127/5/89 128/5/89 129/5/89
f 127/5/90 129/5/90 130/5/90
f 131/5/91 132/5/91 133/5/91
f 131/5/92 133/5/92 134/5/92
f 135/5/93 136/5/93 137/5/93
f 135/5/94 137/5/94 138/5/94
f 139/5/95 140/5/95 141/5/95
f 139/5/96 141/5/96 142/5/96
f 143/5/97 144/5/97 145/5/97
f 143/5/98 145/5/98 146/5/98
f 147/5/99 148/5/99 149/5/99
f 147/5/100 149/5/100 150/5/100
f 151/5/101 152/5/101 153/5/101
f 151/5/101 153/5/101 154/5/101
f 155/5/102 156/5/102 157/5/102
f 155/5/103 157/5/103 158/5/103
f 159/5/104 160/5/104 152/5/104
f 159/5/105 152/5/105 151/5/105
f 161/5/106 162/5/106 163/5/106
f 161/5/107 163/5/107 164/5/107
f 165/5/108 166/5/108 167/5/108
f 165/5/108 167/5/108 168/5/108
f 158/5/109 157/5/109 169/5/109
f 158/5/110 169/5/110 170/5/110
f 171/5/111 172/5/111 173/5/111
f 171/5/112 173/5/112 174/5/112
f 175/5/113 176/5/113 177/5/113
f 175/5/113 177/5/113 178/5/113
f 179/4/114 180/4/114 181/4/114
f 179/4/115 181/4/115 182/4/115
f 183/4/116 184/4/116 185/4/116
f 183/4/117 185/4/117 186/4/117
f 187/4/118 188/4/118 189/4/118
f 187/4/119 189/4/119 190/4/119
f 191/4/120 192/4/120 193/4/120
f 191/4/121 193/4/121 194/4/121
f 195/1/122 196/1/122 197/1/122
f 195/1/123 197/1/123 198/1/123
f 199/2/124 200/2/124 201/2/124
f 199/2/125 201/2/125 202/2/125
s 1
f 203/2/126 204/2/127 205/2/128
f 203/2/126 205/2/128 206/2/129
f 207/2/130 208/2/131 209/2/132
f 207/2/130 209/2/132 210/2/133
s 0
f 211/1/134 212/1/134 213/1/134
f 211/1/135 213/1/135 214/1/135
f 215/1/136 216/1/136 217/1/136
f 215/1/137 217/1/137 218/1/137
f 219/1/138 220/1/138 221/1/138
f 219/1/139 221/1/139 222/1/139
f 223/1/140 224/1/140 225/1/140
f 223/1/141 225/1/141 226/1/141
f 227/1/142 228/1/142 229/1/142
f 227/1/143 229/1/143 230/1/143
f 231/1/144 232/1/144 233/1/144
f 231/1/145 233/1/145 234/1/145
f 235/1/146 236/1/146 237/1/146
f 235/1/147 237/1/147 238/1/147
f 239/1/148 240/1/148 241/1/148
f 239/1/149 241/1/149 242/1/149
f 243/1/150 244/1/150 245/1/150
f 243/1/151 245/1/151 246/1/151
f 247/1/152 248/1/152 249/1/152
f 247/1/153 249/1/153 250/1/153
f 251/1/154 252/1/154 253/1/154
f 251/1/155 253/1/155 254/1/155
f 255/1/156 256/1/156 257/1/156
f 255/1/157 257/1/157 258/1/157
f 259/1/158 260/1/158 261/1/158
f 259/1/158 261/1/158 262/1/158
f 263/1/159 264/1/159 265/1/159
f 263/1/160 265/1/160 266/1/160
f 267/1/161 268/1/161 269/1/161
f 267/1/162 269/1/162 270/1/162
f 271/1/163 272/1/163 273/1/163
f 271/1/164 273/1/164 274/1/164
f 275/1/165 276/1/165 277/1/165
f 275/1/165 277/1/165 278/1/165
f 279/1/166 280/1/166 281/1/166
f 279/1/166 281/1/166 282/1/166
f 283/1/167 284/1/167 285/1/167
f 283/1/167 285/1/167 286/1/167
f 287/1/168 288/1/168 289/1/168
f 287/1/168 289/1/168 290/1/168
f 291/1/169 292/1/169 293/1/169
f 291/1/169 293/1/169 294/1/169
f 295/1/170 296/1/170 297/1/170
f 295/1/170 297/1/170 298/1/170
f 299/1/171 300/1/171 301/1/171
f 299/1/171 301/1/171 302/1/171
f 303/1/172 304/1/172 305/1/172
f 303/1/172 305/1/172 306/1/172
s 1
f 307/1/173 308/6/173 309/1/174
f 307/1/173 309/1/174 310/1/173
f 311/2/175 312/2/176 313/3/177
f 311/2/175 313/3/177 314/7/178
f 315/2/179 316/2/180 317/7/181
f 315/2/179 317/7/181 318/8/182
s 0
f 319/1/183 320/1/183 321/1/183
f 319/1/183 321/1/183 322/1/183
s 1
f 323/6/184 324/1/184 325/1/185
f 323/6/184 325/1/185 326/1/184
f 327/1/186 328/1/186 329/1/187
f 327/1/186 329/1/187 330/1/186
f 331/9/188 332/1/188 333/1/188
f 331/9/188 333/1/188 334/10/188
s 0
f 335/1/189 336/1/189 337/1/189
f 335/1/189 337/1/189 338/1/189
f 339/1/190 340/1/190 341/1/190
f 339/1/190 341/1/190 342/1/190
f 343/10/191 344/1/191 345/1/191
f 343/10/191 345/1/191 346/10/191
s 1
f 347/1/192 348/1/192 349/10/192
f 347/1/192 349/10/192 350/1/192
s 0
f 351/1/193 352/9/193 353/10/193
f 351/1/193 353/10/193 354/10/193
f 355/1/194 356/1/194 357/1/194
f 355/1/194 357/1/194 358/1/194
f 359/1/113 360/1/113 361/9/113
f 359/1/113 361/9/113 362/1/113
s 1
f 363/1/195 364/1/195 365/1/195
f 363/1/195 365/1/195 366/1/195
s 0
f 367/1/196 368/1/196 369/1/196
f 367/1/196 369/1/196 370/1/196
s 1
f 371/1/197 372/1/197 373/1/197
f 371/1/197 373/1/197 374/1/197
s 0
f 375/1/198 376/1/198 377/1/198
f 375/1/198 377/1/198 378/9/198
f 379/4/199 380/4/199 381/4/199
f 379/4/200 381/4/200 382/4/200
s 1
f 383/4/201 384/4/202 385/4/203
f 383/4/201 385/4/203 386/4/204
f 387/4/205 388/4/206 389/4/207
f 387/4/205 389/4/207 390/4/208
f 391/4/209 392/4/210 393/4/211
f 391/4/209 393/4/211 394/4/212
f 395/4/213 396/4/214 397/4/215
f 395/4/213 397/4/215 398/4/216
s 0
f 399/4/217 400/4/217 401/4/217
s 1
f 399/4/218 401/4/218 402/4/218
s 0
f 403/1/219 404/1/219 405/9/219
f 403/1/219 405/9/219 406/1/219
f 407/1/113 408/1/113 409/9/113
f 407/1/113 409/9/113 410/1/113
f 411/1/101 412/1/101 413/1/101
f 411/1/101 413/1/101 414/1/101
f 415/1/220 416/9/220 417/9/220
f 415/1/220 417/9/220 418/1/220
f 419/9/191 420/1/191 421/1/191
f 419/9/191 421/1/191 422/9/191
f 423/1/108 424/1/108 425/1/108
f 423/1/108 425/1/108 426/1/108
f 427/11/221 428/11/221 429/11/221
f 427/11/221 429/11/221 430/11/221
f 431/12/221 432/12/221 433/12/221
f 431/12/221 433/12/221 434/12/221
f 435/11/196 436/11/196 437/11/196
f 435/11/196 437/11/196 438/11/196
f 439/12/196 440/12/196 441/12/196
f 439/12/196 441/12/196 442/12/196
f 443/11/191 444/11/191 445/11/191
f 443/11/191 445/11/191 446/11/191
f 447/12/191 448/12/191 449/12/191
f 447/12/191 449/12/191 450/12/191
f 451/12/222 452/12/222 453/12/222
f 451/12/222 453/12/222 454/12/222
f 455/11/101 456/11/101 457/11/101
f 455/11/101 457/11/101 458/11/101
f 459/12/101 460/12/101 461/12/101
f 459/12/101 461/12/101 462/12/101
s 1
f 463/11/223 464/11/223 465/11/223
s 0
f 463/11/223 465/11/223 466/11/223
f 467/13/224 468/13/224 469/13/224
f 467/13/225 469/13/225 470/13/225
f 471/13/226 472/13/226 473/13/226
f 471/13/227 473/13/227 474/13/227
f 475/13/228 476/13/228 477/13/228
f 475/13/229 477/13/229 478/13/229
f 479/13/230 480/13/230 481/13/230
f 479/13/231 481/13/231 482/13/231
f 1/1/232 4/1/232 483/1/232
f 1/1/233 483/1/233 484/1/233
s 1
f 485/2/234 486/2/235 487/2/236
f 485/2/234 487/2/236 488/2/237
f 489/2/238 490/2/239 491/2/240
f 489/2/238 491/2/240 492/2/241
f 493/2/242 494/3/243 495/2/244
f 493/2/242 495/2/244 496/2/245
f 497/2/246 498/2/247 499/2/248
f 497/2/246 499/2/248 500/2/249
f 501/2/250 502/2/251 503/2/252
f 501/2/250 503/2/252 504/2/253
f 505/2/254 506/2/255 507/2/256
f 505/2/254 507/2/256 508/2/257
f 509/2/258 510/2/259 511/2/260
f 509/2/258 511/2/260 512/2/261
f 513/2/262 514/2/263 515/2/264
f 513/2/262 515/2/264 516/2/265
s 0
f 517/2/266 518/2/266 519/2/266
f 517/2/267 519/2/267 520/2/267
f 521/2/268 522/2/268 523/2/268
f 521/2/269 523/2/269 524/2/269
f 525/4/270 526/4/270 527/4/270
f 525/4/271 527/4/271 528/4/271
s 1
f 529/4/272 530/4/273 531/4/274
f 529/4/272 531/4/274 532/4/275
f 533/4/276 534/4/277 535/4/278
f 533/4/276 535/4/278 536/4/279
s 0
f 537/4/280 538/4/280 539/4/280
f 537/4/281 539/4/281 540/4/281
s 1
f 541/4/282 542/4/283 543/4/284
f 541/4/282 543/4/284 544/4/285
s 0
f 545/4/286 546/4/286 547/4/286
f 545/4/287 547/4/287 548/4/287
s 1
f 549/4/288 550/4/289 551/4/290
f 549/4/288 551/4/290 552/4/291
s 0
f 553/4/292 554/4/292 555/4/292
f 553/4/293 555/4/293 556/4/293
f 557/4/294 558/4/294 559/4/294
f 557/4/295 559/4/295 560/4/295
f 561/4/296 562/4/296 563/4/296
f 561/4/297 563/4/297 564/4/297
f 565/4/298 566/4/298 567/4/298
f 565/4/299 567/4/299 568/4/299
f 569/4/300 570/4/300 571/4/300
f 569/4/301 571/4/301 572/4/301
f 573/4/302 574/4/302 575/4/302
f 573/4/303 575/4/303 576/4/303
f 577/4/304 578/4/304 579/4/304
f 577/4/305 579/4/305 580/4/305
f 581/4/306 582/4/306 583/4/306
f 581/4/307 583/4/307 584/4/307
f 585/5/308 586/5/308 587/5/308
f 585/5/309 587/5/309 588/5/309
f 578/4/310 589/4/310 590/4/310
f 578/4/311 590/4/311 579/4/311
f 591/4/312 592/4/312 593/4/312
f 591/4/313 593/4/313 594/4/313
f 595/4/314 596/4/314 597/4/314
f 595/4/315 597/4/315 598/4/315
f 599/5/316 600/5/316 601/5/316
f 599/5/317 601/5/317 602/5/317
f 603/5/318 604/5/318 605/5/318
f 603/5/319 605/5/319 606/5/319
f 607/5/320 608/5/320 609/5/320
f 607/5/321 609/5/321 610/5/321
f 611/5/322 612/5/322 613/5/322
f 611/5/323 613/5/323 614/5/323
f 615/5/324 616/5/324 617/5/324
f 615/5/325 617/5/325 618/5/325
f 619/5/326 620/5/326 621/5/326
f 619/5/327 621/5/327 622/5/327
f 623/5/328 624/5/328 625/5/328
f 623/5/329 625/5/329 626/5/329
f 627/5/110 628/5/110 629/5/110
f 627/5/330 629/5/330 630/5/330
f 631/5/101 632/5/101 633/5/101
f 631/5/101 633/5/101 634/5/101
f 599/5/331 635/5/331 636/5/331
f 599/5/332 636/5/332 600/5/332
f 637/5/105 631/5/105 634/5/105
f 637/5/333 634/5/333 638/5/333
f 639/5/334 640/5/334 641/5/334
f 639/5/335 641/5/335 642/5/335
f 643/5/108 644/5/108 645/5/108
f 643/5/108 645/5/108 646/5/108
f 635/5/100 647/5/100 648/5/100
f 635/5/336 648/5/336 636/5/336
f 649/5/112 650/5/112 651/5/112
f 649/5/337 651/5/337 652/5/337
f 653/5/219 654/5/219 655/5/219
f 653/5/219 655/5/219 656/5/219
f 657/4/338 658/4/338 659/4/338
f 657/4/339 659/4/339 660/4/339
f 661/4/340 662/4/340 663/4/340
f 661/4/341 663/4/341 664/4/341
f 665/4/342 666/4/342 667/4/342
f 665/4/343 667/4/343 668/4/343
f 669/4/344 670/4/344 671/4/344
f 669/4/345 671/4/345 672/4/345
f 673/1/346 674/1/346 675/1/346
f 673/1/347 675/1/347 676/1/347
f 677/2/348 678/2/348 679/2/348
f 677/2/349 679/2/349 680/2/349
s 1
f 681/2/350 682/2/351 683/2/352
f 681/2/350 683/2/352 684/2/353
f 685/2/354 686/2/355 687/2/356
f 685/2/354 687/2/356 688/2/357
s 0
f 689/1/358 690/1/358 691/1/358
f 689/1/359 691/1/359 692/1/359
f 693/1/360 694/1/360 695/1/360
f 693/1/361 695/1/361 696/1/361
f 697/1/362 698/1/362 699/1/362
f 697/1/363 699/1/363 700/1/363
f 701/1/364 702/1/364 703/1/364
f 701/1/365 703/1/365 704/1/365
f 705/1/366 706/1/366 707/1/366
f 705/1/367 707/1/367 708/1/367
f 709/1/368 710/1/368 711/1/368
f 709/1/369 711/1/369 712/1/369
f 713/1/370 714/1/370 715/1/370
f 713/1/371 715/1/371 716/1/371
f 717/1/372 718/1/372 719/1/372
f 717/1/373 719/1/373 720/1/373
f 721/1/374 722/1/374 723/1/374
f 721/1/375 723/1/375 724/1/375
f 725/1/376 726/1/376 727/1/376
f 725/1/377 727/1/377 728/1/377
f 729/1/378 730/1/378 731/1/378
f 729/1/379 731/1/379 732/1/379
f 733/1/380 734/1/380 735/1/380
f 733/1/381 735/1/381 736/1/381
f 737/1/382 738/1/382 739/1/382
f 737/1/382 739/1/382 740/1/382
f 741/1/383 742/1/383 743/1/383
f 741/1/384 743/1/384 744/1/384
f 745/1/385 746/1/385 747/1/385
f 745/1/386 747/1/386 748/1/386
f 749/1/387 750/1/387 751/1/387
f 749/1/388 751/1/388 752/1/388
f 753/1/389 754/1/389 755/1/389
f 753/1/389 755/1/389 756/1/389
f 757/1/390 758/1/390 759/1/390
f 757/1/391 759/1/391 760/1/391
f 761/1/392 762/1/392 763/1/392
f 761/1/392 763/1/392 764/1/392
f 765/1/393 766/1/393 767/1/393
f 765/1/393 767/1/393 768/1/393
f 769/1/394 770/1/394 771/1/394
f 769/1/394 771/1/394 772/1/394
f 773/1/395 774/1/395 775/1/395
f 773/1/395 775/1/395 776/1/395
f 777/1/396 778/1/396 779/1/396
f 777/1/396 779/1/396 780/1/396
f 781/1/397 782/1/397 783/1/397
f 781/1/397 783/1/397 784/1/397
s 1
f 785/1/398 786/1/398 787/1/399
f 785/1/398 787/1/399 788/6/398
f 789/2/400 790/7/401 791/3/402
f 789/2/400 791/3/402 792/2/403
f 793/2/404 794/8/405 795/7/406
f 793/2/404 795/7/406 796/2/407
s 0
f 797/1/183 798/1/183 321/1/183
f 797/1/183 321/1/183 320/1/183
s 1
f 799/6/408 800/1/408 801/1/409
f 799/6/408 801/1/409 802/1/408
f 803/1/410 804/1/410 805/1/411
f 803/1/410 805/1/411 806/1/410
f 807/9/412 808/10/412 809/1/412
f 807/9/412 809/1/412 810/1/412
s 0
f 811/1/189 812/1/189 813/1/189
f 811/1/413 813/1/413 814/1/413
f 815/1/414 816/1/414 817/1/414
f 815/1/414 817/1/414 818/1/414
f 819/10/191 820/10/191 345/1/191
f 819/10/191 345/1/191 344/1/191
s 1
f 821/1/415 822/1/415 823/10/415
f 821/1/415 823/10/415 824/1/415
s 0
f 825/1/416 826/10/416 827/10/416
f 825/1/416 827/10/416 828/9/416
f 829/1/417 830/1/417 831/1/417
f 829/1/417 831/1/417 832/1/417
f 833/1/219 834/1/219 835/9/219
f 833/1/219 835/9/219 836/1/219
s 1
f 837/1/418 838/1/418 839/1/418
f 837/1/418 839/1/418 840/1/418
s 0
f 841/1/419 842/1/419 843/1/419
f 841/1/419 843/1/419 844/1/419
s 1
f 845/1/420 846/1/420 847/1/420
f 845/1/420 847/1/420 848/1/420
s 0
f 849/1/421 850/9/421 851/1/421
f 849/1/421 851/1/421 852/1/421
f 853/4/422 854/4/422 855/4/422
f 853/4/423 855/4/423 856/4/423
s 1
f 857/4/424 858/4/425 859/4/426
f 857/4/424 859/4/426 860/4/427
f 861/4/428 862/4/429 863/4/430
f 861/4/428 863/4/430 864/4/431
f 865/4/432 866/4/433 867/4/434
f 865/4/432 867/4/434 868/4/435
f 869/4/436 870/4/437 871/4/438
f 869/4/436 871/4/438 872/4/439
f 873/4/440 874/4/440 875/4/440
s 0
f 873/4/441 875/4/441 876/4/441
f 877/1/113 878/1/113 879/9/113
f 877/1/113 879/9/113 880/1/113
f 881/1/219 882/1/219 883/9/219
f 881/1/219 883/9/219 884/1/219
f 885/1/101 886/1/101 887/1/101
f 885/1/101 887/1/101 888/1/101
f 889/1/220 890/1/220 891/9/220
f 889/1/220 891/9/220 892/9/220
f 893/9/191 894/9/191 895/1/191
f 893/9/191 895/1/191 896/1/191
f 897/1/108 898/1/108 899/1/108
f 897/1/108 899/1/108 900/1/108
f 901/11/442 902/11/442 903/11/442
f 901/11/442 903/11/442 904/11/442
f 905/12/442 906/12/442 907/12/442
f 905/12/442 907/12/442 908/12/442
f 909/11/419 910/11/419 911/11/419
f 909/11/419 911/11/419 912/11/419
f 913/12/419 914/12/419 915/12/419
f 913/12/419 915/12/419 916/12/419
f 917/11/191 918/11/191 919/11/191
f 917/11/191 919/11/191 920/11/191
f 921/12/191 922/12/191 923/12/191
f 921/12/191 923/12/191 924/12/191
f 925/12/443 926/12/443 927/12/443
f 925/12/443 927/12/443 928/12/443
f 929/11/101 930/11/101 931/11/101
f 929/11/101 931/11/101 932/11/101
f 933/12/101 934/12/101 935/12/101
f 933/12/101 935/12/101 936/12/101
f 937/11/444 938/11/444 939/11/444
s 1
f 937/11/444 939/11/444 940/11/444
s 0
f 941/13/445 942/13/445 943/13/445
f 941/13/446 943/13/446 944/13/446
f 945/13/447 946/13/447 947/13/447
f 945/13/448 947/13/448 948/13/448
f 949/13/449 950/13/449 951/13/449
f 949/13/450 951/13/450 952/13/450
f 953/13/451 954/13/451 955/13/451
f 953/13/452 955/13/452 956/13/452
